<svg xmlns="http://www.w3.org/2000/svg" viewBox="0 0 277 277"><defs><style>.cls-1{fill:#4d5d5a;}.cls-2{fill:#ce9f29;}.cls-3{fill:#d1af59;}.cls-4{fill:#e8cb82;}</style></defs><g id="Layer_2" data-name="Layer 2"><g id="Layer_1-2" data-name="Layer 1"><circle class="cls-1" cx="138.5" cy="138.5" r="138.5"/><path class="cls-2" d="M209.15,126.55c9.2-1.21,17.79-5.33,27.17-5.72,1.13,0,2.24-.37,3.37-.49,10.38-1,10.42-.61,9.47,9.92-4.26,47.28-39.39,87.33-87,98.05C99.36,242.42,35.37,196.91,28.92,133c-1.45-14.33-1.49-14,13-12.18,9,1.15,17.52,4.44,26.45,5.89,3.58,3.31,8.18,4.85,12.43,6.92,13.83,6.7,24.47,17.19,34,28.8C128.93,179.48,136,199.57,138.54,223c.54-2.26.76-2.89.83-3.53,3.61-31.9,18.54-57.35,43.57-77.22C191,135.81,200.92,132.62,209.15,126.55Z"/><path class="cls-3" d="M209.15,126.55c-8.23,6.07-18.12,9.26-26.21,15.68-25,19.87-40,45.32-43.57,77.22-.07.64-.29,1.27-.83,3.53-2.58-23.41-9.61-43.5-23.69-60.58-9.55-11.61-20.19-22.1-34-28.8C76.58,131.53,72,130,68.4,126.68c-.25-11.64,2.13-22.81,5.41-33.92,1.46-4.94,3.35-5.11,7.56-3.1A117.76,117.76,0,0,1,109,107.73c1.63,1.44,2.88,3.58,5.47,3.65,8.55,11.62,18,22.61,24.07,37.94,5.54-12.36,11.3-22.22,18.73-31.06,2-2.35,4.85-4.22,5.29-7.67,3.1.72,4.39-2,6.15-3.49a121.47,121.47,0,0,1,27.34-17.58c4-1.91,5.88-1.46,7.2,3A138.25,138.25,0,0,1,209.15,126.55Z"/><path class="cls-4" d="M162.58,110.59c-.44,3.45-3.32,5.32-5.29,7.67-7.43,8.84-13.19,18.7-18.73,31.06C132.52,134,123,123,114.49,111.38c4.36-12.93,12.2-23.7,21-33.93,2.25-2.63,3.93-3,6.39-.14C150.48,87.36,158.2,97.92,162.58,110.59Z"/></g></g></svg>